<svg xmlns="http://www.w3.org/2000/svg" viewBox="0 0 1320 580" width="1320" height="580" font-family="Waree, Tahoma, Segoe UI, Arial, sans-serif">
<rect width="1320" height="580" fill="#FFFFFF"/>
<defs><marker id="ah" markerWidth="9" markerHeight="9" refX="8" refY="4.5" orient="auto"><path d="M0,0 L9,4.5 L0,9 z" fill="#1F6F8B"/></marker></defs>
<path d="M 270 216 H 362" fill="none" stroke="#1F6F8B" stroke-width="2.6" marker-end="url(#ah)"/>
<path d="M 370 240 H 278" fill="none" stroke="#1F6F8B" stroke-width="2.6" marker-end="url(#ah)"/>
<path d="M 390 256 V 402" fill="none" stroke="#1F6F8B" stroke-width="2.6" marker-end="url(#ah)"/>
<path d="M 390 402 V 260" fill="none" stroke="#1F6F8B" stroke-width="2.6" marker-end="url(#ah)"/>
<path d="M 600 216 H 692" fill="none" stroke="#1F6F8B" stroke-width="2.6" marker-end="url(#ah)"/>
<path d="M 930 216 H 1022" fill="none" stroke="#1F6F8B" stroke-width="2.6" marker-end="url(#ah)"/>
<path d="M 1145 256 V 437 H 938" fill="none" stroke="#1F6F8B" stroke-width="2.6" marker-end="url(#ah)"/>
<path d="M 700 437 H 560 V 264" fill="none" stroke="#1F6F8B" stroke-width="2.6" marker-end="url(#ah)"/>
<rect x="40" y="200" width="230" height="56" fill="#111111"/>
<text x="155.0" y="235.0" text-anchor="middle" font-size="19.5" font-weight="700" fill="#FFFFFF">Web Application</text>
<rect x="370" y="200" width="230" height="56" fill="#111111"/>
<text x="485.0" y="235.0" text-anchor="middle" font-size="19.5" font-weight="700" fill="#FFFFFF">Backend</text>
<rect x="700" y="200" width="230" height="56" fill="#111111"/>
<text x="815.0" y="235.0" text-anchor="middle" font-size="19.5" font-weight="700" fill="#FFFFFF">Raspberry Pi</text>
<rect x="1030" y="200" width="230" height="56" fill="#111111"/>
<text x="1145.0" y="235.0" text-anchor="middle" font-size="19.5" font-weight="700" fill="#FFFFFF">TM-X Controller</text>
<rect x="290" y="410" width="230" height="56" fill="#111111"/>
<text x="405.0" y="445.0" text-anchor="middle" font-size="19.5" font-weight="700" fill="#FFFFFF">Database</text>
<rect x="700" y="410" width="230" height="56" fill="#111111"/>
<text x="815.0" y="445.0" text-anchor="middle" font-size="19.5" font-weight="700" fill="#FFFFFF">Data Receiver</text>
<circle cx="320" cy="190" r="13" fill="#1F6F8B"/>
<text x="320" y="195.5" text-anchor="middle" font-size="14.5" font-weight="700" fill="#FFFFFF">1</text>
<text x="320" y="133" text-anchor="middle" font-size="15.5" font-weight="700" fill="#333333">กด Start</text>
<text x="320" y="155" text-anchor="middle" font-size="15.5" font-weight="400" fill="#5B6570">พร้อมรายการ ALPL ที่จะวัด</text>
<circle cx="320" cy="266" r="13" fill="#1F6F8B"/>
<text x="320" y="271.5" text-anchor="middle" font-size="14.5" font-weight="700" fill="#FFFFFF">7</text>
<text x="160" y="312" text-anchor="middle" font-size="15.5" font-weight="700" fill="#333333">แสดงผลบนหน้าจอทันที</text>
<text x="160" y="334" text-anchor="middle" font-size="15.5" font-weight="400" fill="#5B6570">ไม่ต้องกดรีเฟรช</text>
<circle cx="390" cy="340" r="13" fill="#1F6F8B"/>
<text x="390" y="345.5" text-anchor="middle" font-size="14.5" font-weight="700" fill="#FFFFFF">2</text>
<text x="412" y="326" text-anchor="start" font-size="15.5" font-weight="700" fill="#333333">สร้าง Session ใหม่</text>
<text x="412" y="348" text-anchor="start" font-size="15.5" font-weight="400" fill="#5B6570">สถานะ Running</text>
<circle cx="650" cy="190" r="13" fill="#1F6F8B"/>
<text x="650" y="195.5" text-anchor="middle" font-size="14.5" font-weight="700" fill="#FFFFFF">3</text>
<text x="650" y="133" text-anchor="middle" font-size="15.5" font-weight="700" fill="#333333">ส่งแผนการวัด</text>
<text x="650" y="155" text-anchor="middle" font-size="15.5" font-weight="400" fill="#5B6570">โปรแกรมวัด + เกณฑ์ OK/NG</text>
<circle cx="980" cy="190" r="13" fill="#1F6F8B"/>
<text x="980" y="195.5" text-anchor="middle" font-size="14.5" font-weight="700" fill="#FFFFFF">4</text>
<text x="980" y="145" text-anchor="middle" font-size="15.5" font-weight="700" fill="#333333">สั่งวัดทีละชิ้น</text>
<circle cx="1145" cy="340" r="13" fill="#1F6F8B"/>
<text x="1145" y="345.5" text-anchor="middle" font-size="14.5" font-weight="700" fill="#FFFFFF">5</text>
<text x="1163" y="330" text-anchor="start" font-size="15.5" font-weight="700" fill="#333333">ส่งค่าที่วัดได้</text>
<text x="1163" y="352" text-anchor="start" font-size="15.5" font-weight="400" fill="#5B6570">และรูปถ่าย</text>
<circle cx="630" cy="437" r="13" fill="#1F6F8B"/>
<text x="630" y="442.5" text-anchor="middle" font-size="14.5" font-weight="700" fill="#FFFFFF">6</text>
<text x="645" y="490" text-anchor="middle" font-size="15.5" font-weight="700" fill="#333333">ส่งต่อให้ระบบหลัก</text>
<text x="645" y="512" text-anchor="middle" font-size="15.5" font-weight="400" fill="#5B6570">ตัดสิน OK / NG แล้วบันทึก</text>
</svg>